<?xml version="1.0" standalone="no"?>
<!DOCTYPE svg PUBLIC "-//W3C//DTD SVG 20010904//EN" "http://www.w3.org/TR/2001/REC-SVG-20010904/DTD/svg10.dtd">
<svg version="1.0" xmlns="http://www.w3.org/2000/svg"
    width="1024.000000pt" height="837.000000pt" viewBox="0 0 1024.000000 837.000000"
    preserveAspectRatio="xMidYMid meet">

    <g transform="translate(0.000000,837.000000) scale(0.100000,-0.100000)"
        fill="#0369a1" stroke="none">
        <path
            d="M4908 8241 l-318 -124 0 -1034 0 -1033 -55 0 -55 0 0 670 c0 369 -3
670 -7 670 -5 0 -151 -57 -325 -127 l-318 -127 0 -561 0 -561 -202 -17 c-2244
-194 -3733 -776 -3619 -1415 88 -492 1092 -934 2656 -1169 l120 -19 -200 -103
c-344 -179 -1062 -571 -1095 -598 -2 -2 0 -7 6 -11 6 -4 19 -22 28 -39 9 -18
23 -33 31 -33 9 0 115 31 238 70 987 309 1744 462 2642 536 120 9 419 18 810
24 341 5 654 11 695 14 41 4 156 11 255 16 1437 83 2699 343 3415 706 205 103
317 180 436 298 111 112 163 196 184 300 23 115 -8 260 -81 382 -40 65 -160
183 -247 242 -141 96 -379 205 -619 283 -57 18 -103 37 -103 41 0 5 169 92
375 194 271 134 373 189 367 199 -4 7 -22 29 -40 50 l-33 37 -132 -37 c-204
-58 -652 -190 -854 -251 l-182 -56 -208 51 c-669 162 -1449 268 -2368 321
-142 8 -745 29 -852 30 l-23 0 -2 1153 -3 1153 -317 -125z m1092 -2441 c563
-32 1097 -92 1560 -176 213 -38 557 -112 578 -123 7 -4 -59 -30 -155 -61
-1695 -537 -3324 -1164 -4630 -1779 -147 -69 -154 -71 -200 -63 l-48 9 90 42
c50 23 182 83 295 134 l205 93 3 942 c2 910 3 942 21 942 10 0 39 3 65 6 l46
7 0 -922 c0 -506 3 -921 7 -921 5 0 151 57 325 127 l318 127 0 813 0 813 55 0
55 0 2 -773 3 -773 318 125 317 124 0 655 0 655 293 -6 c160 -4 375 -11 477
-17z m-2930 -1151 l0 -1040 -47 6 c-27 4 -139 22 -250 41 -919 155 -1583 390
-1889 667 -118 108 -184 248 -169 362 50 402 862 767 2166 974 101 16 185 30
187 30 1 1 2 -467 2 -1040z m5686 661 c373 -145 636 -326 724 -500 60 -118 53
-251 -20 -360 -241 -363 -1091 -674 -2315 -844 -340 -48 -619 -74 -1187 -112
-54 -3 -88 -2 -88 4 0 16 82 122 154 199 325 349 1176 909 2321 1528 110 59
209 114 220 121 28 19 66 12 191 -36z" />
        <path
            d="M3880 1990 l0 -140 -89 0 c-213 0 -409 -77 -532 -208 -206 -220 -246
-659 -87 -964 112 -217 348 -346 631 -348 l77 0 0 -145 0 -145 205 0 205 0 0
145 0 145 83 0 c388 1 662 238 718 622 16 107 6 290 -20 393 -44 171 -136 309
-253 382 -127 79 -240 113 -408 122 l-115 6 -3 138 -3 137 -204 0 -205 0 0
-140z m20 -901 l0 -492 -71 6 c-171 14 -280 126 -310 317 -17 111 -7 348 19
428 47 148 155 230 305 231 l57 1 0 -491z m567 461 c92 -39 156 -127 182 -248
14 -68 14 -355 0 -424 -36 -170 -164 -278 -331 -278 l-48 0 0 491 0 492 73 -5
c43 -3 93 -14 124 -28z" />
        <path
            d="M6858 2060 c-282 -40 -500 -212 -607 -482 -28 -70 -60 -186 -76 -280
l-6 -38 -159 0 -160 0 0 385 0 385 -200 0 -200 0 0 -995 0 -995 200 0 200 0 0
445 0 445 155 0 155 0 0 -42 c0 -73 29 -228 61 -322 95 -285 278 -466 544
-538 113 -30 335 -30 448 0 265 72 466 280 561 581 80 252 82 586 5 844 -89
300 -306 524 -570 587 -100 23 -258 32 -351 20z m288 -332 c99 -52 175 -173
209 -333 34 -161 36 -532 5 -695 -38 -198 -133 -339 -253 -375 -65 -19 -169
-19 -234 0 -120 36 -215 177 -253 375 -20 104 -29 331 -20 483 22 338 109 509
290 568 14 5 66 7 115 6 74 -3 99 -8 141 -29z" />
        <path
            d="M8612 2023 c-3 -10 -151 -459 -327 -998 l-321 -980 204 -3 c113 -1
207 0 209 2 3 2 35 107 72 233 l68 228 296 3 296 2 10 -37 c6 -21 37 -126 69
-233 l58 -195 212 -3 c138 -1 212 1 212 8 0 7 -450 1448 -611 1958 l-11 32
-214 0 c-195 0 -215 -2 -222 -17z m223 -493 c29 -148 146 -609 171 -675 5 -13
-18 -15 -190 -15 -108 0 -196 2 -196 4 0 2 20 73 44 158 25 85 69 252 98 370
29 118 56 210 59 204 4 -6 10 -27 14 -46z" />
        <path
            d="M906 2008 c-3 -13 -43 -444 -91 -958 -47 -514 -88 -952 -91 -972 l-6
-38 201 0 c185 0 201 1 201 18 0 9 18 294 40 632 22 338 41 647 42 685 l3 70
23 -105 c12 -58 93 -373 180 -700 l158 -595 172 -3 171 -2 20 67 c74 249 342
1210 353 1263 11 57 14 61 19 35 4 -17 7 -64 8 -106 0 -42 19 -336 41 -653 22
-317 40 -583 40 -591 0 -13 28 -15 195 -15 107 0 195 3 195 8 1 4 -39 451 -87
995 l-87 987 -256 0 -256 0 -149 -556 c-82 -306 -159 -604 -171 -662 -23 -113
-23 -113 -45 3 -10 53 -257 1028 -295 1163 l-15 52 -254 0 -255 0 -4 -22z" />
    </g>
</svg>